<svg width="144" height="69" viewBox="0 0 144 69" fill="none" xmlns="http://www.w3.org/2000/svg">
<path d="M54.024 51.4L49.938 64H46.122L43.71 56.332L41.19 64H37.374L33.288 51.4H36.96L39.498 59.446L42.162 51.4H45.438L47.976 59.518L50.622 51.4H54.024Z" fill="#E95454"/>
<path d="M65.6627 54.244V64H62.4047V62.956C62.0447 63.352 61.6127 63.652 61.1087 63.856C60.6047 64.06 60.0707 64.162 59.5067 64.162C58.2467 64.162 57.2387 63.79 56.4827 63.046C55.7387 62.302 55.3667 61.186 55.3667 59.698V54.244H58.7867V59.14C58.7867 59.872 58.9247 60.406 59.2007 60.742C59.4767 61.078 59.8787 61.246 60.4067 61.246C60.9467 61.246 61.3847 61.06 61.7207 60.688C62.0687 60.304 62.2427 59.722 62.2427 58.942V54.244H65.6627ZM74.2196 54.082C75.4316 54.082 76.4036 54.442 77.1356 55.162C77.8796 55.882 78.2516 56.968 78.2516 58.42V64H74.8316V58.978C74.8316 57.646 74.2976 56.98 73.2296 56.98C72.6416 56.98 72.1676 57.172 71.8076 57.556C71.4596 57.94 71.2856 58.516 71.2856 59.284V64H67.8656V54.244H71.1236V55.306C71.5076 54.91 71.9636 54.61 72.4916 54.406C73.0196 54.19 73.5956 54.082 74.2196 54.082ZM90.9074 50.644V64H87.6494V63.028C87.0134 63.784 86.0594 64.162 84.7874 64.162C83.8994 64.162 83.0894 63.958 82.3574 63.55C81.6254 63.13 81.0434 62.536 80.6114 61.768C80.1914 61 79.9814 60.112 79.9814 59.104C79.9814 58.096 80.1914 57.214 80.6114 56.458C81.0434 55.69 81.6254 55.102 82.3574 54.694C83.0894 54.286 83.8994 54.082 84.7874 54.082C85.9514 54.082 86.8514 54.418 87.4874 55.09V50.644H90.9074ZM85.5074 61.444C86.0954 61.444 86.5814 61.24 86.9654 60.832C87.3494 60.412 87.5414 59.836 87.5414 59.104C87.5414 58.384 87.3494 57.82 86.9654 57.412C86.5934 57.004 86.1074 56.8 85.5074 56.8C84.9074 56.8 84.4154 57.004 84.0314 57.412C83.6474 57.82 83.4554 58.384 83.4554 59.104C83.4554 59.836 83.6474 60.412 84.0314 60.832C84.4154 61.24 84.9074 61.444 85.5074 61.444ZM103.08 59.14C103.08 59.164 103.062 59.446 103.026 59.986H95.9338C96.0778 60.49 96.3538 60.88 96.7618 61.156C97.1818 61.42 97.7038 61.552 98.3278 61.552C98.7958 61.552 99.1978 61.486 99.5338 61.354C99.8818 61.222 100.23 61.006 100.578 60.706L102.378 62.578C101.43 63.634 100.044 64.162 98.2198 64.162C97.0798 64.162 96.0778 63.946 95.2138 63.514C94.3498 63.082 93.6778 62.482 93.1978 61.714C92.7298 60.946 92.4958 60.076 92.4958 59.104C92.4958 58.144 92.7238 57.286 93.1798 56.53C93.6478 55.762 94.2898 55.162 95.1058 54.73C95.9218 54.298 96.8398 54.082 97.8598 54.082C98.8318 54.082 99.7138 54.286 100.506 54.694C101.298 55.09 101.922 55.672 102.378 56.44C102.846 57.196 103.08 58.096 103.08 59.14ZM97.8778 56.512C97.3498 56.512 96.9058 56.662 96.5458 56.962C96.1978 57.262 95.9758 57.67 95.8798 58.186H99.8758C99.7798 57.67 99.5518 57.262 99.1918 56.962C98.8438 56.662 98.4058 56.512 97.8778 56.512ZM107.915 55.414C108.263 54.97 108.713 54.64 109.265 54.424C109.829 54.196 110.471 54.082 111.191 54.082V57.16C110.879 57.124 110.621 57.106 110.417 57.106C109.685 57.106 109.109 57.304 108.689 57.7C108.281 58.096 108.077 58.702 108.077 59.518V64H104.657V54.244H107.915V55.414ZM118.74 54.082C119.628 54.082 120.432 54.286 121.152 54.694C121.884 55.102 122.46 55.69 122.88 56.458C123.312 57.214 123.528 58.096 123.528 59.104C123.528 60.112 123.312 61 122.88 61.768C122.46 62.536 121.884 63.13 121.152 63.55C120.432 63.958 119.628 64.162 118.74 64.162C117.456 64.162 116.496 63.784 115.86 63.028V64H112.602V50.644H116.022V55.09C116.682 54.418 117.588 54.082 118.74 54.082ZM118.02 61.444C118.62 61.444 119.112 61.24 119.496 60.832C119.88 60.412 120.072 59.836 120.072 59.104C120.072 58.384 119.88 57.82 119.496 57.412C119.112 57.004 118.62 56.8 118.02 56.8C117.42 56.8 116.928 57.004 116.544 57.412C116.16 57.82 115.968 58.384 115.968 59.104C115.968 59.836 116.16 60.412 116.544 60.832C116.928 61.24 117.42 61.444 118.02 61.444ZM129.065 54.082C130.685 54.082 131.921 54.454 132.773 55.198C133.625 55.93 134.051 57.058 134.051 58.582V64H130.865V62.74C130.373 63.688 129.413 64.162 127.985 64.162C127.229 64.162 126.575 64.03 126.023 63.766C125.471 63.502 125.051 63.148 124.763 62.704C124.487 62.248 124.349 61.732 124.349 61.156C124.349 60.232 124.703 59.518 125.411 59.014C126.119 58.498 127.211 58.24 128.687 58.24H130.631C130.571 57.208 129.881 56.692 128.561 56.692C128.093 56.692 127.619 56.77 127.139 56.926C126.659 57.07 126.251 57.274 125.915 57.538L124.763 55.216C125.303 54.856 125.957 54.58 126.725 54.388C127.505 54.184 128.285 54.082 129.065 54.082ZM128.939 62.002C129.335 62.002 129.683 61.906 129.983 61.714C130.283 61.522 130.499 61.24 130.631 60.868V60.022H129.155C128.159 60.022 127.661 60.352 127.661 61.012C127.661 61.312 127.775 61.552 128.003 61.732C128.231 61.912 128.543 62.002 128.939 62.002ZM139.467 55.414C139.815 54.97 140.265 54.64 140.817 54.424C141.381 54.196 142.023 54.082 142.743 54.082V57.16C142.431 57.124 142.173 57.106 141.969 57.106C141.237 57.106 140.661 57.304 140.241 57.7C139.833 58.096 139.629 58.702 139.629 59.518V64H136.209V54.244H139.467V55.414Z" fill="#1A202C"/>
<line x1="58.1579" y1="43.1208" x2="78.5838" y2="7.74227" stroke="#1A202C" stroke-width="13" stroke-linecap="round"/>
<line x1="8.87917" y1="7.37917" x2="29.305" y2="42.7577" stroke="#1A202C" stroke-width="13" stroke-linecap="round"/>
<g filter="url(#filter0_i_11:14)">
<path d="M53 23C53 27.9706 48 32 44 35C39 31 35 27.9706 35 23C35 18.0294 39.0294 14 44 14C48.9706 14 53 18.0294 53 23Z" fill="#E95454"/>
</g>
<defs>
<filter id="filter0_i_11:14" x="35" y="14" width="18" height="26" filterUnits="userSpaceOnUse" color-interpolation-filters="sRGB">
<feFlood flood-opacity="0" result="BackgroundImageFix"/>
<feBlend mode="normal" in="SourceGraphic" in2="BackgroundImageFix" result="shape"/>
<feColorMatrix in="SourceAlpha" type="matrix" values="0 0 0 0 0 0 0 0 0 0 0 0 0 0 0 0 0 0 127 0" result="hardAlpha"/>
<feOffset dy="8"/>
<feGaussianBlur stdDeviation="2.5"/>
<feComposite in2="hardAlpha" operator="arithmetic" k2="-1" k3="1"/>
<feColorMatrix type="matrix" values="0 0 0 0 0.966667 0 0 0 0 0.834969 0 0 0 0 0.531667 0 0 0 1 0"/>
<feBlend mode="normal" in2="shape" result="effect1_innerShadow_11:14"/>
</filter>
</defs>
</svg>
